<svg width="300" height="126" viewBox="0 0 300 126" fill="none" xmlns="http://www.w3.org/2000/svg">
<path d="M139.55 36.7137L117.525 96.5676H125.025L130.575 81.1659H156L161.475 96.5676H169.075L147.15 36.7137H139.55ZM132.725 75.3558L143.3 46.2553L153.875 75.3558H132.725Z" fill="white"/>
<path d="M184.6 89.6306L171.9 54.144H164.375L180.425 96.5676H188.7L204.75 54.144H197.4L184.6 89.6306Z" fill="white"/>
<path d="M258.775 54.144H251.6V96.5426H258.775V54.144Z" fill="white"/>
<path d="M255.2 34.7353C253.775 34.7353 252.6 35.1861 251.65 36.1127C250.7 37.0142 250.25 38.1662 250.25 39.5436C250.25 40.9711 250.725 42.1482 251.65 43.0998C252.6 44.0515 253.775 44.5022 255.2 44.5022C256.575 44.5022 257.725 44.0264 258.7 43.0998C259.675 42.1482 260.15 40.9711 260.15 39.5436C260.15 38.1662 259.675 37.0393 258.7 36.1127C257.725 35.1861 256.55 34.7353 255.2 34.7353Z" fill="white"/>
<path d="M225.45 53.1172C222.425 53.1172 219.6 53.6681 216.925 54.7951C214.25 55.897 212.025 57.5248 210.225 59.6285C208.825 61.2814 207.875 63.2598 207.4 65.5137L214.45 67.417C214.95 64.7374 216.225 62.7088 218.25 61.3064C220.275 59.904 222.675 59.2027 225.475 59.2027C228.725 59.2027 231.3 60.1544 233.25 62.0577C235.175 63.961 236.15 66.7659 236.15 70.4723V70.9732H224.7C219 70.9732 214.525 72.1502 211.225 74.4793C207.925 76.8083 206.275 80.1641 206.275 84.4716C206.275 86.8007 206.85 88.9795 207.975 90.9579C209.125 92.9614 210.85 94.5391 213.175 95.7412C215.5 96.9433 218.45 97.5443 221.975 97.5443C225.85 97.5443 228.925 96.6928 231.225 95.0149C233.525 93.337 235.275 91.2834 236.475 88.9043L236.9 96.5175H243.3V70.4723C243.3 65.2382 241.8 61.0309 238.825 57.8504C235.825 54.6949 231.35 53.1172 225.45 53.1172ZM236.125 76.633C236.125 79.1374 235.625 81.5415 234.6 83.8205C233.575 86.0994 232.075 87.9527 230.125 89.3801C228.15 90.8076 225.825 91.5088 223.075 91.5088C220.125 91.5088 217.825 90.8327 216.2 89.5054C214.575 88.1781 213.775 86.3749 213.775 84.1711C213.775 82.0174 214.65 80.1892 216.375 78.7367C218.1 77.2841 221.075 76.5579 225.3 76.5579H236.15V76.633H236.125Z" fill="white"/>
<path d="M275 36.7137H267.825V96.5676H275V36.7137Z" fill="white"/>
<path d="M60.0001 27.5979C43.0501 27.5979 29.2751 38.6421 25.8251 53.8184L41.0251 58.4765C42.4001 49.7363 50.1001 43.4504 60.0001 43.4504C70.9501 43.4504 79.2001 51.1137 79.2001 61.3064V68.6191C79.2001 68.8195 79.0001 68.9196 78.8251 68.8195C73.3751 65.088 66.9001 62.8591 60.0001 62.8591C40.3751 62.8591 24.9751 77.0838 24.9751 95.9666V96.5426H40.8001V95.9666C40.8001 85.7989 49.0501 78.7116 60.0001 78.7116C70.9501 78.7116 79.2001 85.7989 79.2001 95.9666V96.5426H94.9251H95.0251V61.2814C95.0251 42.3986 79.6251 27.5979 60.0001 27.5979Z" fill="#00FFAA"/>
</svg>
