<svg width="1040" height="325" viewBox="0 0 1040 325" fill="none" xmlns="http://www.w3.org/2000/svg">
<path d="M140.326 224.591V244.492" stroke="white" stroke-width="3" stroke-linecap="round"/>
<path d="M130.376 234.541H150.301" stroke="white" stroke-width="3" stroke-linecap="round"/>
<path d="M722.171 225.88V245.843" stroke="white" stroke-width="3" stroke-linecap="round"/>
<path d="M712.189 235.862H732.177" stroke="white" stroke-width="3" stroke-linecap="round"/>
<path d="M173.203 224.591V244.492" stroke="white" stroke-width="3" stroke-linecap="round"/>
<path d="M163.253 234.541H183.178" stroke="white" stroke-width="3" stroke-linecap="round"/>
<path d="M755.151 225.88V245.843" stroke="white" stroke-width="3" stroke-linecap="round"/>
<path d="M745.17 235.862H765.158" stroke="white" stroke-width="3" stroke-linecap="round"/>
<path d="M206.079 224.591V244.492" stroke="white" stroke-width="3" stroke-linecap="round"/>
<path d="M196.129 234.541H216.054" stroke="white" stroke-width="3" stroke-linecap="round"/>
<path d="M788.132 225.88V245.843" stroke="white" stroke-width="3" stroke-linecap="round"/>
<path d="M778.15 235.862H798.138" stroke="white" stroke-width="3" stroke-linecap="round"/>
<path d="M238.956 224.591V244.492" stroke="white" stroke-width="3" stroke-linecap="round"/>
<path d="M229.006 234.541H248.931" stroke="white" stroke-width="3" stroke-linecap="round"/>
<path d="M821.112 225.88V245.843" stroke="white" stroke-width="3" stroke-linecap="round"/>
<path d="M811.13 235.862H831.118" stroke="white" stroke-width="3" stroke-linecap="round"/>
<path d="M271.833 224.591V244.492" stroke="white" stroke-width="3" stroke-linecap="round"/>
<path d="M261.882 234.541H281.808" stroke="white" stroke-width="3" stroke-linecap="round"/>
<path d="M854.092 225.88V245.843" stroke="white" stroke-width="3" stroke-linecap="round"/>
<path d="M844.111 235.862H864.099" stroke="white" stroke-width="3" stroke-linecap="round"/>
<path d="M304.71 224.591V244.492" stroke="white" stroke-width="3" stroke-linecap="round"/>
<path d="M294.759 234.541H314.685" stroke="white" stroke-width="3" stroke-linecap="round"/>
<path d="M887.072 225.88V245.843" stroke="white" stroke-width="3" stroke-linecap="round"/>
<path d="M877.091 235.862H897.079" stroke="white" stroke-width="3" stroke-linecap="round"/>
<path d="M337.586 224.591V244.492" stroke="white" stroke-width="3" stroke-linecap="round"/>
<path d="M327.636 234.541H347.561" stroke="white" stroke-width="3" stroke-linecap="round"/>
<path d="M920.052 225.88V245.843" stroke="#00FFAA" stroke-width="7" stroke-linecap="round"/>
<path d="M910.071 235.862H930.059" stroke="#00FFAA" stroke-width="7" stroke-linecap="round"/>
<path d="M370.463 224.591V244.492" stroke="#00FFAA" stroke-width="3" stroke-linecap="round"/>
<path d="M360.513 234.541H380.438" stroke="#00FFAA" stroke-width="3" stroke-linecap="round"/>
<path d="M953.033 225.88V245.843" stroke="white" stroke-width="3" stroke-linecap="round"/>
<path d="M943.051 235.862H963.039" stroke="white" stroke-width="3" stroke-linecap="round"/>
<path d="M403.34 224.591V244.492" stroke="white" stroke-width="3" stroke-linecap="round"/>
<path d="M393.389 234.541H413.315" stroke="white" stroke-width="3" stroke-linecap="round"/>
<path d="M986.013 225.88V245.843" stroke="white" stroke-width="3" stroke-linecap="round"/>
<path d="M976.032 235.862H996.02" stroke="white" stroke-width="3" stroke-linecap="round"/>
<path d="M436.216 224.591V244.492" stroke="white" stroke-width="3" stroke-linecap="round"/>
<path d="M426.266 234.541H446.191" stroke="white" stroke-width="3" stroke-linecap="round"/>
<path d="M1018.99 225.88V245.843" stroke="white" stroke-width="3" stroke-linecap="round"/>
<path d="M1009.01 235.862H1029" stroke="white" stroke-width="3" stroke-linecap="round"/>
<line x1="539.118" y1="39.0356" x2="539.118" y2="324.732" stroke="#2D3636" stroke-width="2.5"/>
<line x1="130.261" y1="265.766" x2="446.164" y2="265.766" stroke="white" stroke-width="4"/>
<line x1="712.005" y1="266.629" x2="1028.77" y2="266.629" stroke="white" stroke-width="4"/>
<path d="M918.602 210.487C919.383 211.268 920.65 211.268 921.431 210.487L934.159 197.76C934.94 196.978 934.94 195.712 934.159 194.931C933.378 194.15 932.111 194.15 931.33 194.931L920.017 206.245L908.703 194.931C907.922 194.15 906.656 194.15 905.875 194.931C905.093 195.712 905.093 196.978 905.875 197.76L918.602 210.487ZM918.017 170.233V209.073H922.017V170.233H918.017Z" fill="#00FFAA"/>
<path d="M270.237 216.813C270.893 217.701 272.146 217.889 273.034 217.233L287.509 206.534C288.397 205.877 288.585 204.625 287.929 203.737C287.272 202.848 286.02 202.66 285.132 203.317L272.265 212.827L262.754 199.96C262.098 199.072 260.846 198.884 259.957 199.541C259.069 200.197 258.881 201.45 259.538 202.338L270.237 216.813ZM275.845 175.477L269.867 215.328L273.823 215.921L279.801 176.071L275.845 175.477Z" fill="#FF0000"/>
<path d="M237.066 216.292C237.407 217.343 238.534 217.919 239.585 217.578L256.709 212.029C257.759 211.689 258.335 210.561 257.995 209.51C257.654 208.46 256.526 207.884 255.476 208.224L240.255 213.156L235.323 197.936C234.982 196.885 233.854 196.309 232.803 196.649C231.753 196.99 231.177 198.118 231.517 199.169L237.066 216.292ZM260.101 169.883L237.187 214.766L240.75 216.585L263.664 171.702L260.101 169.883Z" fill="#FF0000"/>
<path d="M204.093 215.738C204.127 216.842 205.05 217.71 206.154 217.676L224.145 217.121C225.249 217.087 226.117 216.165 226.083 215.061C226.049 213.957 225.126 213.089 224.022 213.123L208.03 213.616L207.537 197.623C207.503 196.519 206.58 195.652 205.476 195.686C204.372 195.72 203.505 196.643 203.539 197.747L204.093 215.738ZM252.456 163.446L204.635 214.306L207.549 217.046L255.37 166.186L252.456 163.446Z" fill="#FF0000"/>
<path d="M171.231 215.426C171.093 216.522 171.87 217.522 172.966 217.66L190.826 219.901C191.922 220.039 192.922 219.262 193.059 218.166C193.197 217.07 192.42 216.07 191.324 215.932L175.449 213.94L177.441 198.065C177.579 196.969 176.802 195.969 175.706 195.831C174.61 195.694 173.61 196.47 173.472 197.566L171.231 215.426ZM247.704 155.266L171.988 214.096L174.442 217.255L250.158 158.424L247.704 155.266Z" fill="#FF0000"/>
<path d="M138.378 215.28C138.159 216.362 138.86 217.417 139.943 217.636L157.586 221.199C158.669 221.418 159.724 220.717 159.943 219.635C160.161 218.552 159.461 217.497 158.378 217.278L142.695 214.111L145.862 198.428C146.081 197.345 145.38 196.29 144.298 196.071C143.215 195.853 142.16 196.553 141.941 197.636L138.378 215.28ZM242.843 145.216L139.232 214.009L141.445 217.342L245.056 148.549L242.843 145.216Z" fill="#FF0000"/>
<path d="M303.673 217.379C304.614 217.958 305.846 217.665 306.425 216.724L315.863 201.397C316.442 200.457 316.149 199.225 315.209 198.645C314.268 198.066 313.036 198.359 312.457 199.3L304.068 212.924L290.443 204.535C289.503 203.956 288.271 204.249 287.692 205.189C287.112 206.13 287.405 207.362 288.346 207.941L303.673 217.379ZM292.814 174.244L302.776 216.138L306.668 215.213L296.705 173.319L292.814 174.244Z" fill="#FF0000"/>
<path d="M337.137 217.623C338.211 217.878 339.289 217.213 339.545 216.139L343.701 198.625C343.957 197.55 343.292 196.472 342.217 196.217C341.143 195.962 340.065 196.627 339.81 197.701L336.115 213.269L320.547 209.574C319.472 209.319 318.394 209.983 318.139 211.058C317.884 212.133 318.549 213.211 319.623 213.466L337.137 217.623ZM307.004 169.851L335.896 216.726L339.301 214.627L310.41 167.752L307.004 169.851Z" fill="#FF0000"/>
<path d="M370.455 217.676C371.56 217.687 372.464 216.801 372.475 215.696L372.655 197.697C372.666 196.592 371.78 195.688 370.675 195.677C369.571 195.666 368.666 196.552 368.655 197.657L368.495 213.656L352.496 213.496C351.391 213.485 350.487 214.371 350.476 215.476C350.465 216.58 351.351 217.485 352.456 217.496L370.455 217.676ZM317.241 164.223L369.047 217.076L371.903 214.276L320.098 161.423L317.241 164.223Z" fill="#00FFAA"/>
<path d="M403.578 217.663C404.676 217.538 405.464 216.547 405.339 215.45L403.302 197.565C403.177 196.468 402.186 195.679 401.089 195.804C399.991 195.929 399.203 196.92 399.328 198.018L401.138 213.915L385.241 215.725C384.144 215.85 383.355 216.841 383.48 217.939C383.605 219.036 384.596 219.825 385.694 219.7L403.578 217.663ZM324.398 155.422L402.107 217.241L404.597 214.111L326.889 152.291L324.398 155.422Z" fill="#FF0000"/>
<path d="M436.607 217.64C437.692 217.431 438.401 216.383 438.192 215.298L434.784 197.624C434.575 196.539 433.526 195.829 432.441 196.038C431.357 196.248 430.647 197.296 430.856 198.381L433.886 214.091L418.175 217.121C417.091 217.33 416.381 218.379 416.59 219.464C416.799 220.548 417.848 221.258 418.933 221.049L436.607 217.64ZM330.5 146.547L435.107 217.333L437.349 214.02L332.742 143.235L330.5 146.547Z" fill="#FF0000"/>
<ellipse cx="287.781" cy="128.803" rx="40.1351" ry="39.7035" fill="#D9D9D9"/>
<ellipse cx="953.247" cy="130.098" rx="40.1351" ry="40.1351" fill="#00FFAA"/>
<path d="M268.972 139V131.776L262.476 119.4H265.836L270.456 128.864L275.048 119.4H278.38L271.94 131.776V139H268.972ZM284.139 139.336C282.813 139.336 281.619 139.037 280.555 138.44C279.509 137.824 278.679 136.975 278.063 135.892C277.447 134.791 277.139 133.512 277.139 132.056C277.139 130.6 277.447 129.331 278.063 128.248C278.697 127.147 279.547 126.297 280.611 125.7C281.675 125.084 282.86 124.776 284.167 124.776C285.492 124.776 286.677 125.084 287.723 125.7C288.787 126.297 289.627 127.147 290.243 128.248C290.877 129.331 291.195 130.6 291.195 132.056C291.195 133.512 290.877 134.791 290.243 135.892C289.627 136.975 288.787 137.824 287.723 138.44C286.659 139.037 285.464 139.336 284.139 139.336ZM284.139 136.788C284.848 136.788 285.501 136.611 286.099 136.256C286.715 135.901 287.209 135.379 287.583 134.688C287.956 133.979 288.143 133.101 288.143 132.056C288.143 131.011 287.956 130.143 287.583 129.452C287.228 128.743 286.743 128.211 286.127 127.856C285.529 127.501 284.876 127.324 284.167 127.324C283.457 127.324 282.795 127.501 282.179 127.856C281.581 128.211 281.096 128.743 280.723 129.452C280.349 130.143 280.163 131.011 280.163 132.056C280.163 133.101 280.349 133.979 280.723 134.688C281.096 135.379 281.581 135.901 282.179 136.256C282.776 136.611 283.429 136.788 284.139 136.788ZM298.913 139.336C297.233 139.336 295.907 138.813 294.937 137.768C293.985 136.723 293.509 135.164 293.509 133.092V125.112H296.477V132.784C296.477 135.472 297.578 136.816 299.781 136.816C300.882 136.816 301.787 136.424 302.497 135.64C303.206 134.856 303.561 133.736 303.561 132.28V125.112H306.529V139H303.897L303.673 136.564C303.243 137.423 302.609 138.104 301.769 138.608C300.947 139.093 299.995 139.336 298.913 139.336Z" fill="black"/>
<path d="M222.199 30.432C220.351 30.432 218.731 30.108 217.339 29.46C215.947 28.812 214.855 27.888 214.063 26.688C213.295 25.488 212.899 24.06 212.875 22.404H216.907C216.931 23.748 217.399 24.888 218.311 25.824C219.223 26.76 220.507 27.228 222.163 27.228C223.627 27.228 224.767 26.88 225.583 26.184C226.423 25.464 226.843 24.552 226.843 23.448C226.843 22.56 226.639 21.84 226.231 21.288C225.847 20.736 225.307 20.28 224.611 19.92C223.939 19.56 223.159 19.236 222.271 18.948C221.383 18.66 220.447 18.348 219.463 18.012C217.519 17.364 216.055 16.524 215.071 15.492C214.111 14.46 213.631 13.104 213.631 11.424C213.607 10.008 213.931 8.772 214.603 7.716C215.299 6.66 216.259 5.844 217.483 5.268C218.731 4.668 220.183 4.368 221.839 4.368C223.471 4.368 224.899 4.668 226.123 5.268C227.371 5.868 228.343 6.708 229.039 7.788C229.735 8.844 230.095 10.08 230.119 11.496H226.087C226.087 10.848 225.919 10.236 225.583 9.66C225.247 9.06 224.755 8.568 224.107 8.184C223.459 7.8 222.667 7.608 221.731 7.608C220.531 7.584 219.535 7.884 218.743 8.508C217.975 9.132 217.591 9.996 217.591 11.1C217.591 12.084 217.879 12.84 218.455 13.368C219.031 13.896 219.823 14.34 220.831 14.7C221.839 15.036 222.991 15.432 224.287 15.888C225.535 16.296 226.651 16.788 227.635 17.364C228.619 17.94 229.399 18.696 229.975 19.632C230.575 20.568 230.875 21.756 230.875 23.196C230.875 24.468 230.551 25.656 229.903 26.76C229.255 27.84 228.283 28.728 226.987 29.424C225.691 30.096 224.095 30.432 222.199 30.432ZM242.572 30.432C240.82 30.432 239.248 30.036 237.856 29.244C236.488 28.452 235.408 27.36 234.616 25.968C233.848 24.552 233.464 22.92 233.464 21.072C233.464 19.224 233.848 17.604 234.616 16.212C235.408 14.796 236.488 13.692 237.856 12.9C239.248 12.108 240.82 11.712 242.572 11.712C244.78 11.712 246.628 12.288 248.116 13.44C249.628 14.592 250.6 16.152 251.032 18.12H247.036C246.796 17.136 246.268 16.368 245.452 15.816C244.636 15.264 243.676 14.988 242.572 14.988C241.636 14.988 240.772 15.228 239.98 15.708C239.188 16.164 238.552 16.848 238.072 17.76C237.592 18.648 237.352 19.752 237.352 21.072C237.352 22.392 237.592 23.508 238.072 24.42C238.552 25.308 239.188 25.992 239.98 26.472C240.772 26.952 241.636 27.192 242.572 27.192C243.676 27.192 244.636 26.916 245.452 26.364C246.268 25.812 246.796 25.032 247.036 24.024H251.032C250.624 25.944 249.664 27.492 248.152 28.668C246.64 29.844 244.78 30.432 242.572 30.432ZM260.426 30.432C258.914 30.432 257.666 30.18 256.682 29.676C255.698 29.172 254.966 28.512 254.486 27.696C254.006 26.856 253.766 25.944 253.766 24.96C253.766 23.232 254.438 21.864 255.782 20.856C257.126 19.848 259.046 19.344 261.542 19.344H266.222V19.02C266.222 17.628 265.838 16.584 265.07 15.888C264.326 15.192 263.354 14.844 262.154 14.844C261.098 14.844 260.174 15.108 259.382 15.636C258.614 16.14 258.146 16.896 257.978 17.904H254.162C254.282 16.608 254.714 15.504 255.458 14.592C256.226 13.656 257.186 12.948 258.338 12.468C259.514 11.964 260.798 11.712 262.19 11.712C264.686 11.712 266.618 12.372 267.986 13.692C269.354 14.988 270.038 16.764 270.038 19.02V30H266.726L266.402 26.94C265.898 27.924 265.166 28.752 264.206 29.424C263.246 30.096 261.986 30.432 260.426 30.432ZM261.182 27.336C262.214 27.336 263.078 27.096 263.774 26.616C264.494 26.112 265.046 25.452 265.43 24.636C265.838 23.82 266.09 22.92 266.186 21.936H261.938C260.426 21.936 259.346 22.2 258.698 22.728C258.074 23.256 257.762 23.916 257.762 24.708C257.762 25.524 258.062 26.172 258.662 26.652C259.286 27.108 260.126 27.336 261.182 27.336ZM273.696 30V12.144H277.08L277.368 15.276C277.92 14.172 278.724 13.308 279.78 12.684C280.86 12.036 282.096 11.712 283.488 11.712C285.648 11.712 287.34 12.384 288.564 13.728C289.812 15.072 290.436 17.076 290.436 19.74V30H286.656V20.136C286.656 16.68 285.24 14.952 282.408 14.952C280.992 14.952 279.816 15.456 278.88 16.464C277.968 17.472 277.512 18.912 277.512 20.784V30H273.696ZM294.138 30V12.144H297.522L297.81 15.276C298.362 14.172 299.166 13.308 300.222 12.684C301.302 12.036 302.538 11.712 303.93 11.712C306.09 11.712 307.782 12.384 309.006 13.728C310.254 15.072 310.878 17.076 310.878 19.74V30H307.098V20.136C307.098 16.68 305.682 14.952 302.85 14.952C301.434 14.952 300.258 15.456 299.322 16.464C298.41 17.472 297.954 18.912 297.954 20.784V30H294.138ZM316.74 8.76C316.02 8.76 315.42 8.544 314.94 8.112C314.484 7.656 314.256 7.092 314.256 6.42C314.256 5.748 314.484 5.196 314.94 4.764C315.42 4.308 316.02 4.08 316.74 4.08C317.46 4.08 318.048 4.308 318.504 4.764C318.984 5.196 319.224 5.748 319.224 6.42C319.224 7.092 318.984 7.656 318.504 8.112C318.048 8.544 317.46 8.76 316.74 8.76ZM314.832 30V12.144H318.648V30H314.832ZM322.894 30V12.144H326.278L326.566 15.276C327.118 14.172 327.922 13.308 328.978 12.684C330.058 12.036 331.294 11.712 332.686 11.712C334.846 11.712 336.538 12.384 337.762 13.728C339.01 15.072 339.634 17.076 339.634 19.74V30H335.854V20.136C335.854 16.68 334.438 14.952 331.606 14.952C330.19 14.952 329.014 15.456 328.078 16.464C327.166 17.472 326.71 18.912 326.71 20.784V30H322.894ZM350.644 24.528C349.708 24.528 348.844 24.42 348.052 24.204L346.504 25.716C346.768 25.884 347.092 26.028 347.476 26.148C347.86 26.268 348.4 26.376 349.096 26.472C349.792 26.568 350.74 26.664 351.94 26.76C354.316 26.976 356.032 27.552 357.088 28.488C358.144 29.4 358.672 30.624 358.672 32.16C358.672 33.216 358.384 34.212 357.808 35.148C357.256 36.108 356.38 36.876 355.18 37.452C354.004 38.052 352.492 38.352 350.644 38.352C348.148 38.352 346.12 37.872 344.56 36.912C343.024 35.976 342.256 34.548 342.256 32.628C342.256 31.884 342.448 31.14 342.832 30.396C343.24 29.676 343.876 28.992 344.74 28.344C344.236 28.128 343.792 27.9 343.408 27.66C343.048 27.396 342.724 27.132 342.436 26.868V26.004L345.532 22.836C344.14 21.636 343.444 20.064 343.444 18.12C343.444 16.944 343.72 15.876 344.272 14.916C344.848 13.932 345.676 13.152 346.756 12.576C347.836 12 349.132 11.712 350.644 11.712C351.652 11.712 352.588 11.856 353.452 12.144H360.112V14.664L356.944 14.844C357.52 15.828 357.808 16.92 357.808 18.12C357.808 19.32 357.52 20.4 356.944 21.36C356.392 22.32 355.576 23.088 354.496 23.664C353.44 24.24 352.156 24.528 350.644 24.528ZM350.644 21.54C351.748 21.54 352.636 21.252 353.308 20.676C354.004 20.076 354.352 19.236 354.352 18.156C354.352 17.052 354.004 16.212 353.308 15.636C352.636 15.06 351.748 14.772 350.644 14.772C349.516 14.772 348.604 15.06 347.908 15.636C347.236 16.212 346.9 17.052 346.9 18.156C346.9 19.236 347.236 20.076 347.908 20.676C348.604 21.252 349.516 21.54 350.644 21.54ZM345.856 32.268C345.856 33.3 346.312 34.068 347.224 34.572C348.136 35.1 349.276 35.364 350.644 35.364C351.964 35.364 353.032 35.076 353.848 34.5C354.664 33.948 355.072 33.204 355.072 32.268C355.072 31.572 354.796 30.972 354.244 30.468C353.692 29.988 352.648 29.688 351.112 29.568C349.96 29.496 348.94 29.388 348.052 29.244C347.212 29.7 346.636 30.192 346.324 30.72C346.012 31.248 345.856 31.764 345.856 32.268Z" fill="#00FFAA"/>
<path d="M768.865 30V4.8H777.685C779.653 4.8 781.285 5.136 782.581 5.808C783.877 6.456 784.837 7.356 785.461 8.508C786.109 9.636 786.433 10.92 786.433 12.36C786.433 13.728 786.121 14.988 785.497 16.14C784.897 17.268 783.949 18.168 782.653 18.84C781.357 19.512 779.701 19.848 777.685 19.848H772.681V30H768.865ZM772.681 16.716H777.505C779.305 16.716 780.589 16.332 781.357 15.564C782.149 14.772 782.545 13.704 782.545 12.36C782.545 10.968 782.149 9.888 781.357 9.12C780.589 8.328 779.305 7.932 777.505 7.932H772.681V16.716ZM796.636 30.432C794.932 30.432 793.396 30.048 792.028 29.28C790.684 28.488 789.616 27.396 788.824 26.004C788.032 24.588 787.636 22.944 787.636 21.072C787.636 19.2 788.032 17.568 788.824 16.176C789.64 14.76 790.732 13.668 792.1 12.9C793.468 12.108 794.992 11.712 796.672 11.712C798.376 11.712 799.9 12.108 801.244 12.9C802.612 13.668 803.692 14.76 804.484 16.176C805.3 17.568 805.708 19.2 805.708 21.072C805.708 22.944 805.3 24.588 804.484 26.004C803.692 27.396 802.612 28.488 801.244 29.28C799.876 30.048 798.34 30.432 796.636 30.432ZM796.636 27.156C797.548 27.156 798.388 26.928 799.156 26.472C799.948 26.016 800.584 25.344 801.064 24.456C801.544 23.544 801.784 22.416 801.784 21.072C801.784 19.728 801.544 18.612 801.064 17.724C800.608 16.812 799.984 16.128 799.192 15.672C798.424 15.216 797.584 14.988 796.672 14.988C795.76 14.988 794.908 15.216 794.116 15.672C793.348 16.128 792.724 16.812 792.244 17.724C791.764 18.612 791.524 19.728 791.524 21.072C791.524 22.416 791.764 23.544 792.244 24.456C792.724 25.344 793.348 26.016 794.116 26.472C794.884 26.928 795.724 27.156 796.636 27.156ZM811.203 8.76C810.483 8.76 809.883 8.544 809.403 8.112C808.947 7.656 808.719 7.092 808.719 6.42C808.719 5.748 808.947 5.196 809.403 4.764C809.883 4.308 810.483 4.08 811.203 4.08C811.923 4.08 812.511 4.308 812.967 4.764C813.447 5.196 813.687 5.748 813.687 6.42C813.687 7.092 813.447 7.656 812.967 8.112C812.511 8.544 811.923 8.76 811.203 8.76ZM809.295 30V12.144H813.111V30H809.295ZM817.356 30V12.144H820.74L821.028 15.276C821.58 14.172 822.384 13.308 823.44 12.684C824.52 12.036 825.756 11.712 827.148 11.712C829.308 11.712 831 12.384 832.224 13.728C833.472 15.072 834.096 17.076 834.096 19.74V30H830.316V20.136C830.316 16.68 828.9 14.952 826.068 14.952C824.652 14.952 823.476 15.456 822.54 16.464C821.628 17.472 821.172 18.912 821.172 20.784V30H817.356ZM845.287 30C843.535 30 842.143 29.58 841.111 28.74C840.079 27.876 839.563 26.352 839.563 24.168V15.348H836.503V12.144H839.563L840.031 7.608H843.379V12.144H848.419V15.348H843.379V24.168C843.379 25.152 843.583 25.836 843.991 26.22C844.423 26.58 845.155 26.76 846.187 26.76H848.239V30H845.287ZM859.456 30.432C857.704 30.432 856.144 30.048 854.776 29.28C853.432 28.488 852.376 27.396 851.608 26.004C850.84 24.612 850.456 22.992 850.456 21.144C850.456 19.272 850.828 17.628 851.572 16.212C852.34 14.796 853.396 13.692 854.74 12.9C856.108 12.108 857.692 11.712 859.492 11.712C861.244 11.712 862.768 12.108 864.064 12.9C865.36 13.668 866.368 14.7 867.088 15.996C867.808 17.292 868.168 18.72 868.168 20.28C868.168 20.52 868.156 20.784 868.132 21.072C868.132 21.336 868.12 21.636 868.096 21.972H854.2C854.32 23.7 854.884 25.02 855.892 25.932C856.924 26.82 858.112 27.264 859.456 27.264C860.536 27.264 861.436 27.024 862.156 26.544C862.9 26.04 863.452 25.368 863.812 24.528H867.628C867.148 26.208 866.188 27.612 864.748 28.74C863.332 29.868 861.568 30.432 859.456 30.432ZM859.456 14.844C858.184 14.844 857.056 15.228 856.072 15.996C855.088 16.74 854.488 17.868 854.272 19.38H864.352C864.28 17.988 863.788 16.884 862.876 16.068C861.964 15.252 860.824 14.844 859.456 14.844ZM871.336 30V12.144H874.756L875.08 15.528C875.704 14.352 876.568 13.428 877.672 12.756C878.8 12.06 880.156 11.712 881.74 11.712V15.708H880.696C879.64 15.708 878.692 15.888 877.852 16.248C877.036 16.584 876.376 17.172 875.872 18.012C875.392 18.828 875.152 19.968 875.152 21.432V30H871.336ZM900.958 30.432C899.11 30.432 897.49 30.108 896.098 29.46C894.706 28.812 893.614 27.888 892.822 26.688C892.054 25.488 891.658 24.06 891.634 22.404H895.666C895.69 23.748 896.158 24.888 897.07 25.824C897.982 26.76 899.266 27.228 900.922 27.228C902.386 27.228 903.526 26.88 904.342 26.184C905.182 25.464 905.602 24.552 905.602 23.448C905.602 22.56 905.398 21.84 904.99 21.288C904.606 20.736 904.066 20.28 903.37 19.92C902.698 19.56 901.918 19.236 901.03 18.948C900.142 18.66 899.206 18.348 898.222 18.012C896.278 17.364 894.814 16.524 893.83 15.492C892.87 14.46 892.39 13.104 892.39 11.424C892.366 10.008 892.69 8.772 893.362 7.716C894.058 6.66 895.018 5.844 896.242 5.268C897.49 4.668 898.942 4.368 900.598 4.368C902.23 4.368 903.658 4.668 904.882 5.268C906.13 5.868 907.102 6.708 907.798 7.788C908.494 8.844 908.854 10.08 908.878 11.496H904.846C904.846 10.848 904.678 10.236 904.342 9.66C904.006 9.06 903.514 8.568 902.866 8.184C902.218 7.8 901.426 7.608 900.49 7.608C899.29 7.584 898.294 7.884 897.502 8.508C896.734 9.132 896.35 9.996 896.35 11.1C896.35 12.084 896.638 12.84 897.214 13.368C897.79 13.896 898.582 14.34 899.59 14.7C900.598 15.036 901.75 15.432 903.046 15.888C904.294 16.296 905.41 16.788 906.394 17.364C907.378 17.94 908.158 18.696 908.734 19.632C909.334 20.568 909.634 21.756 909.634 23.196C909.634 24.468 909.31 25.656 908.662 26.76C908.014 27.84 907.042 28.728 905.746 29.424C904.45 30.096 902.854 30.432 900.958 30.432ZM914.958 37.92L919.242 28.524H918.198L911.142 12.144H915.282L920.754 25.356L926.478 12.144H930.51L918.99 37.92H914.958ZM939.034 30.432C936.778 30.432 934.918 29.88 933.454 28.776C931.99 27.672 931.15 26.208 930.934 24.384H934.786C934.978 25.2 935.434 25.908 936.154 26.508C936.874 27.084 937.822 27.372 938.998 27.372C940.15 27.372 940.99 27.132 941.518 26.652C942.046 26.172 942.31 25.62 942.31 24.996C942.31 24.084 941.938 23.472 941.194 23.16C940.474 22.824 939.466 22.524 938.17 22.26C937.162 22.044 936.154 21.756 935.146 21.396C934.162 21.036 933.334 20.532 932.662 19.884C932.014 19.212 931.69 18.312 931.69 17.184C931.69 15.624 932.29 14.328 933.49 13.296C934.69 12.24 936.37 11.712 938.53 11.712C940.522 11.712 942.13 12.192 943.354 13.152C944.602 14.112 945.334 15.468 945.55 17.22H941.878C941.758 16.452 941.398 15.852 940.798 15.42C940.222 14.988 939.442 14.772 938.458 14.772C937.498 14.772 936.754 14.976 936.226 15.384C935.698 15.768 935.434 16.272 935.434 16.896C935.434 17.52 935.794 18.012 936.514 18.372C937.258 18.732 938.23 19.056 939.43 19.344C940.63 19.608 941.734 19.92 942.742 20.28C943.774 20.616 944.602 21.12 945.226 21.792C945.85 22.464 946.162 23.448 946.162 24.744C946.186 26.376 945.55 27.732 944.254 28.812C942.982 29.892 941.242 30.432 939.034 30.432ZM956.356 30C954.604 30 953.212 29.58 952.18 28.74C951.148 27.876 950.632 26.352 950.632 24.168V15.348H947.572V12.144H950.632L951.1 7.608H954.448V12.144H959.488V15.348H954.448V24.168C954.448 25.152 954.652 25.836 955.06 26.22C955.492 26.58 956.224 26.76 957.256 26.76H959.308V30H956.356ZM970.526 30.432C968.774 30.432 967.214 30.048 965.846 29.28C964.502 28.488 963.446 27.396 962.678 26.004C961.91 24.612 961.526 22.992 961.526 21.144C961.526 19.272 961.898 17.628 962.642 16.212C963.41 14.796 964.466 13.692 965.81 12.9C967.178 12.108 968.762 11.712 970.562 11.712C972.314 11.712 973.838 12.108 975.134 12.9C976.43 13.668 977.438 14.7 978.158 15.996C978.878 17.292 979.238 18.72 979.238 20.28C979.238 20.52 979.226 20.784 979.202 21.072C979.202 21.336 979.19 21.636 979.166 21.972H965.27C965.39 23.7 965.954 25.02 966.962 25.932C967.994 26.82 969.182 27.264 970.526 27.264C971.606 27.264 972.506 27.024 973.226 26.544C973.97 26.04 974.522 25.368 974.882 24.528H978.698C978.218 26.208 977.258 27.612 975.818 28.74C974.402 29.868 972.638 30.432 970.526 30.432ZM970.526 14.844C969.254 14.844 968.126 15.228 967.142 15.996C966.158 16.74 965.558 17.868 965.342 19.38H975.422C975.35 17.988 974.858 16.884 973.946 16.068C973.034 15.252 971.894 14.844 970.526 14.844ZM982.405 30V12.144H985.789L986.113 14.664C986.689 13.752 987.445 13.032 988.381 12.504C989.341 11.976 990.445 11.712 991.693 11.712C994.525 11.712 996.493 12.828 997.597 15.06C998.245 14.028 999.109 13.212 1000.19 12.612C1001.29 12.012 1002.48 11.712 1003.75 11.712C1005.99 11.712 1007.74 12.384 1009.01 13.728C1010.28 15.072 1010.92 17.076 1010.92 19.74V30H1007.1V20.136C1007.1 16.68 1005.78 14.952 1003.14 14.952C1001.8 14.952 1000.69 15.456 999.829 16.464C998.989 17.472 998.569 18.912 998.569 20.784V30H994.753V20.136C994.753 16.68 993.421 14.952 990.757 14.952C989.437 14.952 988.345 15.456 987.481 16.464C986.641 17.472 986.221 18.912 986.221 20.784V30H982.405Z" fill="#00FFAA"/>
<path d="M625.918 244V227.2H631.366C633.334 227.2 634.95 227.544 636.214 228.232C637.494 228.92 638.438 229.896 639.046 231.16C639.67 232.408 639.982 233.896 639.982 235.624C639.982 237.336 639.67 238.824 639.046 240.088C638.438 241.336 637.494 242.304 636.214 242.992C634.95 243.664 633.334 244 631.366 244H625.918ZM628.462 241.84H631.27C632.79 241.84 633.99 241.592 634.87 241.096C635.766 240.6 636.406 239.888 636.79 238.96C637.19 238.032 637.39 236.92 637.39 235.624C637.39 234.328 637.19 233.208 636.79 232.264C636.406 231.32 635.766 230.6 634.87 230.104C633.99 229.592 632.79 229.336 631.27 229.336H628.462V241.84ZM646.201 244.288C645.193 244.288 644.361 244.12 643.705 243.784C643.049 243.448 642.561 243.008 642.241 242.464C641.921 241.904 641.761 241.296 641.761 240.64C641.761 239.488 642.209 238.576 643.105 237.904C644.001 237.232 645.281 236.896 646.945 236.896H650.065V236.68C650.065 235.752 649.809 235.056 649.297 234.592C648.801 234.128 648.153 233.896 647.353 233.896C646.649 233.896 646.033 234.072 645.505 234.424C644.993 234.76 644.681 235.264 644.569 235.936H642.025C642.105 235.072 642.393 234.336 642.889 233.728C643.401 233.104 644.041 232.632 644.809 232.312C645.593 231.976 646.449 231.808 647.377 231.808C649.041 231.808 650.329 232.248 651.241 233.128C652.153 233.992 652.609 235.176 652.609 236.68V244H650.401L650.185 241.96C649.849 242.616 649.361 243.168 648.721 243.616C648.081 244.064 647.241 244.288 646.201 244.288ZM646.705 242.224C647.393 242.224 647.969 242.064 648.433 241.744C648.913 241.408 649.281 240.968 649.537 240.424C649.809 239.88 649.977 239.28 650.041 238.624H647.209C646.201 238.624 645.481 238.8 645.049 239.152C644.633 239.504 644.425 239.944 644.425 240.472C644.425 241.016 644.625 241.448 645.025 241.768C645.441 242.072 646.001 242.224 646.705 242.224ZM659.805 244C658.637 244 657.709 243.72 657.021 243.16C656.333 242.584 655.989 241.568 655.989 240.112V234.232H653.949V232.096H655.989L656.301 229.072H658.533V232.096H661.893V234.232H658.533V240.112C658.533 240.768 658.669 241.224 658.941 241.48C659.229 241.72 659.717 241.84 660.405 241.84H661.773V244H659.805ZM668.02 244.288C667.012 244.288 666.18 244.12 665.524 243.784C664.868 243.448 664.38 243.008 664.06 242.464C663.74 241.904 663.58 241.296 663.58 240.64C663.58 239.488 664.028 238.576 664.924 237.904C665.82 237.232 667.1 236.896 668.764 236.896H671.884V236.68C671.884 235.752 671.628 235.056 671.116 234.592C670.62 234.128 669.972 233.896 669.172 233.896C668.468 233.896 667.852 234.072 667.324 234.424C666.812 234.76 666.5 235.264 666.388 235.936H663.844C663.924 235.072 664.212 234.336 664.708 233.728C665.22 233.104 665.86 232.632 666.628 232.312C667.412 231.976 668.268 231.808 669.196 231.808C670.86 231.808 672.148 232.248 673.06 233.128C673.972 233.992 674.428 235.176 674.428 236.68V244H672.22L672.004 241.96C671.668 242.616 671.18 243.168 670.54 243.616C669.9 244.064 669.06 244.288 668.02 244.288ZM668.524 242.224C669.212 242.224 669.788 242.064 670.252 241.744C670.732 241.408 671.1 240.968 671.356 240.424C671.628 239.88 671.796 239.28 671.86 238.624H669.028C668.02 238.624 667.3 238.8 666.868 239.152C666.452 239.504 666.244 239.944 666.244 240.472C666.244 241.016 666.444 241.448 666.844 241.768C667.26 242.072 667.82 242.224 668.524 242.224Z" fill="white"/>
<path d="M57.4179 242V225.2H62.8659C64.8339 225.2 66.4499 225.544 67.7139 226.232C68.9939 226.92 69.9379 227.896 70.5459 229.16C71.1699 230.408 71.4819 231.896 71.4819 233.624C71.4819 235.336 71.1699 236.824 70.5459 238.088C69.9379 239.336 68.9939 240.304 67.7139 240.992C66.4499 241.664 64.8339 242 62.8659 242H57.4179ZM59.9619 239.84H62.7699C64.2899 239.84 65.4899 239.592 66.3699 239.096C67.2659 238.6 67.9059 237.888 68.2899 236.96C68.6899 236.032 68.8899 234.92 68.8899 233.624C68.8899 232.328 68.6899 231.208 68.2899 230.264C67.9059 229.32 67.2659 228.6 66.3699 228.104C65.4899 227.592 64.2899 227.336 62.7699 227.336H59.9619V239.84ZM77.7009 242.288C76.6929 242.288 75.8609 242.12 75.2049 241.784C74.5489 241.448 74.0609 241.008 73.7409 240.464C73.4209 239.904 73.2609 239.296 73.2609 238.64C73.2609 237.488 73.7089 236.576 74.6049 235.904C75.5009 235.232 76.7809 234.896 78.4449 234.896H81.5649V234.68C81.5649 233.752 81.3089 233.056 80.7969 232.592C80.3009 232.128 79.6529 231.896 78.8529 231.896C78.1489 231.896 77.5329 232.072 77.0049 232.424C76.4929 232.76 76.1809 233.264 76.0689 233.936H73.5249C73.6049 233.072 73.8929 232.336 74.3889 231.728C74.9009 231.104 75.5409 230.632 76.3089 230.312C77.0929 229.976 77.9489 229.808 78.8769 229.808C80.5409 229.808 81.8289 230.248 82.7409 231.128C83.6529 231.992 84.1089 233.176 84.1089 234.68V242H81.9009L81.6849 239.96C81.3489 240.616 80.8609 241.168 80.2209 241.616C79.5809 242.064 78.7409 242.288 77.7009 242.288ZM78.2049 240.224C78.8929 240.224 79.4689 240.064 79.9329 239.744C80.4129 239.408 80.7809 238.968 81.0369 238.424C81.3089 237.88 81.4769 237.28 81.5409 236.624H78.7089C77.7009 236.624 76.9809 236.8 76.5489 237.152C76.1329 237.504 75.9249 237.944 75.9249 238.472C75.9249 239.016 76.1249 239.448 76.5249 239.768C76.9409 240.072 77.5009 240.224 78.2049 240.224ZM91.3048 242C90.1368 242 89.2088 241.72 88.5208 241.16C87.8328 240.584 87.4888 239.568 87.4888 238.112V232.232H85.4488V230.096H87.4888L87.8008 227.072H90.0328V230.096H93.3928V232.232H90.0328V238.112C90.0328 238.768 90.1688 239.224 90.4408 239.48C90.7288 239.72 91.2168 239.84 91.9048 239.84H93.2728V242H91.3048ZM99.5199 242.288C98.5119 242.288 97.6799 242.12 97.0239 241.784C96.3679 241.448 95.8799 241.008 95.5599 240.464C95.2399 239.904 95.0799 239.296 95.0799 238.64C95.0799 237.488 95.5279 236.576 96.4239 235.904C97.3199 235.232 98.5999 234.896 100.264 234.896H103.384V234.68C103.384 233.752 103.128 233.056 102.616 232.592C102.12 232.128 101.472 231.896 100.672 231.896C99.9679 231.896 99.3519 232.072 98.8239 232.424C98.3119 232.76 97.9999 233.264 97.8879 233.936H95.3439C95.4239 233.072 95.7119 232.336 96.2079 231.728C96.7199 231.104 97.3599 230.632 98.1279 230.312C98.9119 229.976 99.7679 229.808 100.696 229.808C102.36 229.808 103.648 230.248 104.56 231.128C105.472 231.992 105.928 233.176 105.928 234.68V242H103.72L103.504 239.96C103.168 240.616 102.68 241.168 102.04 241.616C101.4 242.064 100.56 242.288 99.5199 242.288ZM100.024 240.224C100.712 240.224 101.288 240.064 101.752 239.744C102.232 239.408 102.6 238.968 102.856 238.424C103.128 237.88 103.296 237.28 103.36 236.624H100.528C99.5199 236.624 98.7999 236.8 98.3679 237.152C97.9519 237.504 97.7439 237.944 97.7439 238.472C97.7439 239.016 97.9439 239.448 98.3439 239.768C98.7599 240.072 99.3199 240.224 100.024 240.224Z" fill="white"/>
<path d="M571.697 273V256.2H578.033C579.777 256.2 581.097 256.608 581.993 257.424C582.889 258.24 583.337 259.264 583.337 260.496C583.337 261.568 583.049 262.424 582.473 263.064C581.897 263.688 581.201 264.112 580.385 264.336C581.025 264.464 581.593 264.72 582.089 265.104C582.601 265.488 583.001 265.968 583.289 266.544C583.577 267.12 583.721 267.744 583.721 268.416C583.721 269.28 583.505 270.064 583.073 270.768C582.657 271.456 582.041 272 581.225 272.4C580.409 272.8 579.409 273 578.225 273H571.697ZM574.241 263.4H577.721C578.697 263.4 579.441 263.176 579.953 262.728C580.465 262.264 580.721 261.632 580.721 260.832C580.721 260.048 580.465 259.424 579.953 258.96C579.457 258.496 578.697 258.264 577.673 258.264H574.241V263.4ZM574.241 270.912H577.889C578.913 270.912 579.705 270.672 580.265 270.192C580.841 269.712 581.129 269.04 581.129 268.176C581.129 267.312 580.833 266.632 580.241 266.136C579.649 265.624 578.849 265.368 577.841 265.368H574.241V270.912ZM585.886 273V255.72H588.43V273H585.886ZM596.691 273.288C595.555 273.288 594.531 273.032 593.619 272.52C592.723 271.992 592.011 271.264 591.483 270.336C590.955 269.392 590.691 268.296 590.691 267.048C590.691 265.8 590.955 264.712 591.483 263.784C592.027 262.84 592.755 262.112 593.667 261.6C594.579 261.072 595.595 260.808 596.715 260.808C597.851 260.808 598.867 261.072 599.763 261.6C600.675 262.112 601.395 262.84 601.923 263.784C602.467 264.712 602.739 265.8 602.739 267.048C602.739 268.296 602.467 269.392 601.923 270.336C601.395 271.264 600.675 271.992 599.763 272.52C598.851 273.032 597.827 273.288 596.691 273.288ZM596.691 271.104C597.299 271.104 597.859 270.952 598.371 270.648C598.899 270.344 599.323 269.896 599.643 269.304C599.963 268.696 600.123 267.944 600.123 267.048C600.123 266.152 599.963 265.408 599.643 264.816C599.339 264.208 598.923 263.752 598.395 263.448C597.883 263.144 597.323 262.992 596.715 262.992C596.107 262.992 595.539 263.144 595.011 263.448C594.499 263.752 594.083 264.208 593.763 264.816C593.443 265.408 593.283 266.152 593.283 267.048C593.283 267.944 593.443 268.696 593.763 269.304C594.083 269.896 594.499 270.344 595.011 270.648C595.523 270.952 596.083 271.104 596.691 271.104ZM610.603 273.288C609.435 273.288 608.387 273.024 607.458 272.496C606.546 271.968 605.826 271.24 605.298 270.312C604.786 269.368 604.53 268.28 604.53 267.048C604.53 265.816 604.786 264.736 605.298 263.808C605.826 262.864 606.546 262.128 607.458 261.6C608.387 261.072 609.435 260.808 610.603 260.808C612.075 260.808 613.307 261.192 614.299 261.96C615.307 262.728 615.955 263.768 616.242 265.08H613.579C613.419 264.424 613.067 263.912 612.523 263.544C611.979 263.176 611.339 262.992 610.603 262.992C609.979 262.992 609.403 263.152 608.874 263.472C608.347 263.776 607.923 264.232 607.602 264.84C607.282 265.432 607.122 266.168 607.122 267.048C607.122 267.928 607.282 268.672 607.602 269.28C607.923 269.872 608.347 270.328 608.874 270.648C609.403 270.968 609.979 271.128 610.603 271.128C611.339 271.128 611.979 270.944 612.523 270.576C613.067 270.208 613.419 269.688 613.579 269.016H616.242C615.971 270.296 615.331 271.328 614.323 272.112C613.315 272.896 612.075 273.288 610.603 273.288ZM618.474 273V255.72H621.018V266.016L625.578 261.096H628.626L623.562 266.496L629.37 273H626.154L621.018 266.904V273H618.474ZM635.539 273.288C634.371 273.288 633.323 273.024 632.395 272.496C631.483 271.968 630.763 271.24 630.235 270.312C629.723 269.368 629.467 268.28 629.467 267.048C629.467 265.816 629.723 264.736 630.235 263.808C630.763 262.864 631.483 262.128 632.395 261.6C633.323 261.072 634.371 260.808 635.539 260.808C637.011 260.808 638.243 261.192 639.235 261.96C640.243 262.728 640.891 263.768 641.179 265.08H638.515C638.355 264.424 638.003 263.912 637.459 263.544C636.915 263.176 636.275 262.992 635.539 262.992C634.915 262.992 634.339 263.152 633.811 263.472C633.283 263.776 632.859 264.232 632.539 264.84C632.219 265.432 632.059 266.168 632.059 267.048C632.059 267.928 632.219 268.672 632.539 269.28C632.859 269.872 633.283 270.328 633.811 270.648C634.339 270.968 634.915 271.128 635.539 271.128C636.275 271.128 636.915 270.944 637.459 270.576C638.003 270.208 638.355 269.688 638.515 269.016H641.179C640.907 270.296 640.267 271.328 639.259 272.112C638.251 272.896 637.011 273.288 635.539 273.288ZM643.41 273V255.72H645.954V263.016C646.354 262.328 646.906 261.792 647.61 261.408C648.33 261.008 649.122 260.808 649.986 260.808C651.41 260.808 652.53 261.256 653.346 262.152C654.162 263.048 654.57 264.384 654.57 266.16V273H652.05V266.424C652.05 264.12 651.13 262.968 649.29 262.968C648.33 262.968 647.53 263.304 646.89 263.976C646.266 264.648 645.954 265.608 645.954 266.856V273H643.41ZM661.07 273.288C660.062 273.288 659.23 273.12 658.574 272.784C657.918 272.448 657.43 272.008 657.11 271.464C656.79 270.904 656.63 270.296 656.63 269.64C656.63 268.488 657.078 267.576 657.974 266.904C658.87 266.232 660.15 265.896 661.814 265.896H664.934V265.68C664.934 264.752 664.678 264.056 664.166 263.592C663.67 263.128 663.022 262.896 662.222 262.896C661.518 262.896 660.902 263.072 660.374 263.424C659.862 263.76 659.55 264.264 659.438 264.936H656.894C656.974 264.072 657.262 263.336 657.758 262.728C658.27 262.104 658.91 261.632 659.678 261.312C660.462 260.976 661.318 260.808 662.246 260.808C663.91 260.808 665.198 261.248 666.11 262.128C667.022 262.992 667.478 264.176 667.478 265.68V273H665.27L665.054 270.96C664.718 271.616 664.23 272.168 663.59 272.616C662.95 273.064 662.11 273.288 661.07 273.288ZM661.574 271.224C662.262 271.224 662.838 271.064 663.302 270.744C663.782 270.408 664.15 269.968 664.406 269.424C664.678 268.88 664.846 268.28 664.91 267.624H662.078C661.07 267.624 660.35 267.8 659.918 268.152C659.502 268.504 659.294 268.944 659.294 269.472C659.294 270.016 659.494 270.448 659.894 270.768C660.31 271.072 660.87 271.224 661.574 271.224ZM671.356 258.84C670.876 258.84 670.476 258.696 670.156 258.408C669.852 258.104 669.7 257.728 669.7 257.28C669.7 256.832 669.852 256.464 670.156 256.176C670.476 255.872 670.876 255.72 671.356 255.72C671.836 255.72 672.228 255.872 672.532 256.176C672.852 256.464 673.012 256.832 673.012 257.28C673.012 257.728 672.852 258.104 672.532 258.408C672.228 258.696 671.836 258.84 671.356 258.84ZM670.084 273V261.096H672.628V273H670.084ZM675.459 273V261.096H677.715L677.907 263.184C678.275 262.448 678.811 261.872 679.515 261.456C680.235 261.024 681.059 260.808 681.987 260.808C683.427 260.808 684.555 261.256 685.371 262.152C686.203 263.048 686.619 264.384 686.619 266.16V273H684.099V266.424C684.099 264.12 683.155 262.968 681.267 262.968C680.323 262.968 679.539 263.304 678.915 263.976C678.307 264.648 678.003 265.608 678.003 266.856V273H675.459Z" fill="white"/>
<path d="M4.69719 275V258.2H11.0332C12.7772 258.2 14.0972 258.608 14.9932 259.424C15.8892 260.24 16.3372 261.264 16.3372 262.496C16.3372 263.568 16.0492 264.424 15.4732 265.064C14.8972 265.688 14.2012 266.112 13.3852 266.336C14.0252 266.464 14.5932 266.72 15.0892 267.104C15.6012 267.488 16.0012 267.968 16.2892 268.544C16.5772 269.12 16.7212 269.744 16.7212 270.416C16.7212 271.28 16.5052 272.064 16.0732 272.768C15.6572 273.456 15.0412 274 14.2252 274.4C13.4092 274.8 12.4092 275 11.2252 275H4.69719ZM7.24119 265.4H10.7212C11.6972 265.4 12.4412 265.176 12.9532 264.728C13.4652 264.264 13.7212 263.632 13.7212 262.832C13.7212 262.048 13.4652 261.424 12.9532 260.96C12.4572 260.496 11.6972 260.264 10.6732 260.264H7.24119V265.4ZM7.24119 272.912H10.8892C11.9132 272.912 12.7052 272.672 13.2652 272.192C13.8412 271.712 14.1292 271.04 14.1292 270.176C14.1292 269.312 13.8332 268.632 13.2412 268.136C12.6492 267.624 11.8492 267.368 10.8412 267.368H7.24119V272.912ZM18.8857 275V257.72H21.4297V275H18.8857ZM29.6913 275.288C28.5553 275.288 27.5313 275.032 26.6193 274.52C25.7233 273.992 25.0113 273.264 24.4833 272.336C23.9553 271.392 23.6913 270.296 23.6913 269.048C23.6913 267.8 23.9553 266.712 24.4833 265.784C25.0273 264.84 25.7553 264.112 26.6673 263.6C27.5793 263.072 28.5953 262.808 29.7153 262.808C30.8513 262.808 31.8673 263.072 32.7633 263.6C33.6753 264.112 34.3953 264.84 34.9233 265.784C35.4673 266.712 35.7393 267.8 35.7393 269.048C35.7393 270.296 35.4673 271.392 34.9233 272.336C34.3953 273.264 33.6753 273.992 32.7633 274.52C31.8513 275.032 30.8273 275.288 29.6913 275.288ZM29.6913 273.104C30.2993 273.104 30.8593 272.952 31.3713 272.648C31.8993 272.344 32.3233 271.896 32.6433 271.304C32.9633 270.696 33.1233 269.944 33.1233 269.048C33.1233 268.152 32.9633 267.408 32.6433 266.816C32.3393 266.208 31.9233 265.752 31.3953 265.448C30.8833 265.144 30.3233 264.992 29.7153 264.992C29.1073 264.992 28.5393 265.144 28.0113 265.448C27.4993 265.752 27.0833 266.208 26.7633 266.816C26.4433 267.408 26.2833 268.152 26.2833 269.048C26.2833 269.944 26.4433 270.696 26.7633 271.304C27.0833 271.896 27.4993 272.344 28.0113 272.648C28.5233 272.952 29.0833 273.104 29.6913 273.104ZM43.6025 275.288C42.4345 275.288 41.3865 275.024 40.4585 274.496C39.5465 273.968 38.8265 273.24 38.2985 272.312C37.7865 271.368 37.5305 270.28 37.5305 269.048C37.5305 267.816 37.7865 266.736 38.2985 265.808C38.8265 264.864 39.5465 264.128 40.4585 263.6C41.3865 263.072 42.4345 262.808 43.6025 262.808C45.0745 262.808 46.3065 263.192 47.2985 263.96C48.3065 264.728 48.9545 265.768 49.2425 267.08H46.5785C46.4185 266.424 46.0665 265.912 45.5225 265.544C44.9785 265.176 44.3385 264.992 43.6025 264.992C42.9785 264.992 42.4025 265.152 41.8745 265.472C41.3465 265.776 40.9225 266.232 40.6025 266.84C40.2825 267.432 40.1225 268.168 40.1225 269.048C40.1225 269.928 40.2825 270.672 40.6025 271.28C40.9225 271.872 41.3465 272.328 41.8745 272.648C42.4025 272.968 42.9785 273.128 43.6025 273.128C44.3385 273.128 44.9785 272.944 45.5225 272.576C46.0665 272.208 46.4185 271.688 46.5785 271.016H49.2425C48.9705 272.296 48.3305 273.328 47.3225 274.112C46.3145 274.896 45.0745 275.288 43.6025 275.288ZM51.4736 275V257.72H54.0176V268.016L58.5776 263.096H61.6256L56.5616 268.496L62.3696 275H59.1536L54.0176 268.904V275H51.4736ZM68.5387 275.288C67.3707 275.288 66.3227 275.024 65.3947 274.496C64.4827 273.968 63.7627 273.24 63.2347 272.312C62.7227 271.368 62.4667 270.28 62.4667 269.048C62.4667 267.816 62.7227 266.736 63.2347 265.808C63.7627 264.864 64.4827 264.128 65.3947 263.6C66.3227 263.072 67.3707 262.808 68.5387 262.808C70.0107 262.808 71.2427 263.192 72.2347 263.96C73.2427 264.728 73.8907 265.768 74.1787 267.08H71.5147C71.3547 266.424 71.0027 265.912 70.4587 265.544C69.9147 265.176 69.2747 264.992 68.5387 264.992C67.9147 264.992 67.3387 265.152 66.8107 265.472C66.2827 265.776 65.8587 266.232 65.5387 266.84C65.2187 267.432 65.0587 268.168 65.0587 269.048C65.0587 269.928 65.2187 270.672 65.5387 271.28C65.8587 271.872 66.2827 272.328 66.8107 272.648C67.3387 272.968 67.9147 273.128 68.5387 273.128C69.2747 273.128 69.9147 272.944 70.4587 272.576C71.0027 272.208 71.3547 271.688 71.5147 271.016H74.1787C73.9067 272.296 73.2667 273.328 72.2587 274.112C71.2507 274.896 70.0107 275.288 68.5387 275.288ZM76.4098 275V257.72H78.9538V265.016C79.3538 264.328 79.9058 263.792 80.6098 263.408C81.3298 263.008 82.1218 262.808 82.9858 262.808C84.4098 262.808 85.5298 263.256 86.3458 264.152C87.1618 265.048 87.5698 266.384 87.5698 268.16V275H85.0498V268.424C85.0498 266.12 84.1298 264.968 82.2898 264.968C81.3298 264.968 80.5298 265.304 79.8898 265.976C79.2658 266.648 78.9538 267.608 78.9538 268.856V275H76.4098ZM94.07 275.288C93.062 275.288 92.23 275.12 91.574 274.784C90.918 274.448 90.43 274.008 90.11 273.464C89.79 272.904 89.63 272.296 89.63 271.64C89.63 270.488 90.078 269.576 90.974 268.904C91.87 268.232 93.15 267.896 94.814 267.896H97.934V267.68C97.934 266.752 97.678 266.056 97.166 265.592C96.67 265.128 96.022 264.896 95.222 264.896C94.518 264.896 93.902 265.072 93.374 265.424C92.862 265.76 92.55 266.264 92.438 266.936H89.894C89.974 266.072 90.262 265.336 90.758 264.728C91.27 264.104 91.91 263.632 92.678 263.312C93.462 262.976 94.318 262.808 95.246 262.808C96.91 262.808 98.198 263.248 99.11 264.128C100.022 264.992 100.478 266.176 100.478 267.68V275H98.27L98.054 272.96C97.718 273.616 97.23 274.168 96.59 274.616C95.95 275.064 95.11 275.288 94.07 275.288ZM94.574 273.224C95.262 273.224 95.838 273.064 96.302 272.744C96.782 272.408 97.15 271.968 97.406 271.424C97.678 270.88 97.846 270.28 97.91 269.624H95.078C94.07 269.624 93.35 269.8 92.918 270.152C92.502 270.504 92.294 270.944 92.294 271.472C92.294 272.016 92.494 272.448 92.894 272.768C93.31 273.072 93.87 273.224 94.574 273.224ZM104.356 260.84C103.876 260.84 103.476 260.696 103.156 260.408C102.852 260.104 102.7 259.728 102.7 259.28C102.7 258.832 102.852 258.464 103.156 258.176C103.476 257.872 103.876 257.72 104.356 257.72C104.836 257.72 105.228 257.872 105.532 258.176C105.852 258.464 106.012 258.832 106.012 259.28C106.012 259.728 105.852 260.104 105.532 260.408C105.228 260.696 104.836 260.84 104.356 260.84ZM103.084 275V263.096H105.628V275H103.084ZM108.459 275V263.096H110.715L110.907 265.184C111.275 264.448 111.811 263.872 112.515 263.456C113.235 263.024 114.059 262.808 114.987 262.808C116.427 262.808 117.555 263.256 118.371 264.152C119.203 265.048 119.619 266.384 119.619 268.16V275H117.099V268.424C117.099 266.12 116.155 264.968 114.267 264.968C113.323 264.968 112.539 265.304 111.915 265.976C111.307 266.648 111.003 267.608 111.003 268.856V275H108.459Z" fill="white"/>
<circle cx="888.354" cy="130.8" r="39.9761" fill="#D9D9D9"/>
<path d="M873.972 139V131.776L867.476 119.4H870.836L875.456 128.864L880.048 119.4H883.38L876.94 131.776V139H873.972ZM889.139 139.336C887.813 139.336 886.619 139.037 885.555 138.44C884.509 137.824 883.679 136.974 883.063 135.892C882.447 134.79 882.139 133.512 882.139 132.056C882.139 130.6 882.447 129.33 883.063 128.248C883.697 127.146 884.547 126.297 885.611 125.7C886.675 125.084 887.86 124.776 889.167 124.776C890.492 124.776 891.677 125.084 892.723 125.7C893.787 126.297 894.627 127.146 895.243 128.248C895.877 129.33 896.195 130.6 896.195 132.056C896.195 133.512 895.877 134.79 895.243 135.892C894.627 136.974 893.787 137.824 892.723 138.44C891.659 139.037 890.464 139.336 889.139 139.336ZM889.139 136.788C889.848 136.788 890.501 136.61 891.099 136.256C891.715 135.901 892.209 135.378 892.583 134.688C892.956 133.978 893.143 133.101 893.143 132.056C893.143 131.01 892.956 130.142 892.583 129.452C892.228 128.742 891.743 128.21 891.127 127.856C890.529 127.501 889.876 127.324 889.167 127.324C888.457 127.324 887.795 127.501 887.179 127.856C886.581 128.21 886.096 128.742 885.723 129.452C885.349 130.142 885.163 131.01 885.163 132.056C885.163 133.101 885.349 133.978 885.723 134.688C886.096 135.378 886.581 135.901 887.179 136.256C887.776 136.61 888.429 136.788 889.139 136.788ZM903.913 139.336C902.233 139.336 900.907 138.813 899.937 137.768C898.985 136.722 898.509 135.164 898.509 133.092V125.112H901.477V132.784C901.477 135.472 902.578 136.816 904.781 136.816C905.882 136.816 906.787 136.424 907.497 135.64C908.206 134.856 908.561 133.736 908.561 132.28V125.112H911.529V139H908.897L908.673 136.564C908.243 137.422 907.609 138.104 906.769 138.608C905.947 139.093 904.995 139.336 903.913 139.336Z" fill="black"/>
<path d="M953.217 107.255C942.167 107.255 933.166 114.439 930.909 124.324L940.83 127.352C941.721 121.652 946.741 117.556 953.217 117.556C960.346 117.556 965.752 122.543 965.752 129.162V133.941C965.752 133.941 965.604 134.149 965.515 134.06C961.95 131.626 957.732 130.172 953.217 130.172C940.414 130.172 930.374 139.433 930.374 151.722V152.108H940.711V151.722C940.711 145.103 946.088 140.472 953.247 140.472C960.406 140.472 965.782 145.073 965.782 151.722V152.108H976.119V129.162C976.119 116.873 966.079 107.226 953.276 107.226L953.217 107.255Z" fill="black"/>
</svg>
