<svg width="29" height="29" viewBox="0 0 29 29" fill="none" xmlns="http://www.w3.org/2000/svg">
<path d="M13.196 6H6.804C6.60509 6 6.41432 6.07902 6.27367 6.21967C6.13302 6.36032 6.054 6.55109 6.054 6.75V13.25C6.054 13.4489 6.13302 13.6397 6.27367 13.7803C6.41432 13.921 6.60509 14 6.804 14H13.196C13.3949 14 13.5857 13.921 13.7263 13.7803C13.867 13.6397 13.946 13.4489 13.946 13.25V6.75C13.946 6.55109 13.867 6.36032 13.7263 6.21967C13.5857 6.07902 13.3949 6 13.196 6ZM12.446 12.5H7.554V7.5H12.446V12.5ZM11 9H9V11H11V9ZM3 12C3.26522 12 3.51957 11.8946 3.70711 11.7071C3.89464 11.5196 4 11.2652 4 11V5C4.00026 4.73486 4.10571 4.48066 4.29319 4.29319C4.48066 4.10571 4.73486 4.00026 5 4H11C11.2652 4 11.5196 3.89464 11.7071 3.70711C11.8946 3.51957 12 3.26522 12 3C12 2.73478 11.8946 2.48043 11.7071 2.29289C11.5196 2.10536 11.2652 2 11 2H5C4.20459 2.00079 3.44199 2.31712 2.87956 2.87956C2.31712 3.44199 2.00079 4.20459 2 5V11C2 11.2652 2.10536 11.5196 2.29289 11.7071C2.48043 11.8946 2.73478 12 3 12ZM13.196 15H6.804C6.60509 15 6.41432 15.079 6.27367 15.2197C6.13302 15.3603 6.054 15.5511 6.054 15.75V22.25C6.054 22.4489 6.13302 22.6397 6.27367 22.7803C6.41432 22.921 6.60509 23 6.804 23H13.196C13.3949 23 13.5857 22.921 13.7263 22.7803C13.867 22.6397 13.946 22.4489 13.946 22.25V15.75C13.946 15.5511 13.867 15.3603 13.7263 15.2197C13.5857 15.079 13.3949 15 13.196 15ZM12.446 21.5H7.554V16.5H12.446V21.5ZM11 18H9V20H11V18ZM11 25H5C4.73486 24.9997 4.48066 24.8943 4.29319 24.7068C4.10571 24.5193 4.00026 24.2651 4 24V18C4 17.7348 3.89464 17.4804 3.70711 17.2929C3.51957 17.1054 3.26522 17 3 17C2.73478 17 2.48043 17.1054 2.29289 17.2929C2.10536 17.4804 2 17.7348 2 18V24C2.00079 24.7954 2.31712 25.558 2.87956 26.1204C3.44199 26.6829 4.20459 26.9992 5 27H11C11.2652 27 11.5196 26.8946 11.7071 26.7071C11.8946 26.5196 12 26.2652 12 26C12 25.7348 11.8946 25.4804 11.7071 25.2929C11.5196 25.1054 11.2652 25 11 25ZM26 17C25.7348 17 25.4804 17.1054 25.2929 17.2929C25.1054 17.4804 25 17.7348 25 18V24C24.9997 24.2651 24.8943 24.5193 24.7068 24.7068C24.5193 24.8943 24.2651 24.9997 24 25H18C17.7348 25 17.4804 25.1054 17.2929 25.2929C17.1054 25.4804 17 25.7348 17 26C17 26.2652 17.1054 26.5196 17.2929 26.7071C17.4804 26.8946 17.7348 27 18 27H24C24.7954 26.9992 25.558 26.6829 26.1204 26.1204C26.6829 25.558 26.9992 24.7954 27 24V18C27 17.7348 26.8946 17.4804 26.7071 17.2929C26.5196 17.1054 26.2652 17 26 17ZM17.5 20.5H15.5V22.5H17.5V20.5ZM15.5 17.494H17.5V15.494H15.5V17.494ZM24 2H18C17.7348 2 17.4804 2.10536 17.2929 2.29289C17.1054 2.48043 17 2.73478 17 3C17 3.26522 17.1054 3.51957 17.2929 3.70711C17.4804 3.89464 17.7348 4 18 4H24C24.2651 4.00026 24.5193 4.10571 24.7068 4.29319C24.8943 4.48066 24.9997 4.73486 25 5V11C25 11.2652 25.1054 11.5196 25.2929 11.7071C25.4804 11.8946 25.7348 12 26 12C26.2652 12 26.5196 11.8946 26.7071 11.7071C26.8946 11.5196 27 11.2652 27 11V5C26.9992 4.20459 26.6829 3.44199 26.1204 2.87956C25.558 2.31712 24.7954 2.00079 24 2ZM18 11H20V9H18V11ZM20 20V18H18V20H20ZM22.196 14C22.3949 14 22.5857 13.921 22.7263 13.7803C22.867 13.6397 22.946 13.4489 22.946 13.25V6.75C22.946 6.55109 22.867 6.36032 22.7263 6.21967C22.5857 6.07902 22.3949 6 22.196 6H15.804C15.6051 6 15.4143 6.07902 15.2737 6.21967C15.133 6.36032 15.054 6.55109 15.054 6.75V13.25C15.054 13.4489 15.133 13.6397 15.2737 13.7803C15.4143 13.921 15.6051 14 15.804 14H22.196ZM16.554 7.5H21.446V12.5H16.554V7.5ZM22.5 15.494H20.5V17.494H22.5V15.494ZM20.5 22.5H22.5V20.5H20.5V22.5Z" fill="black"/>
</svg>
