<svg width="300" height="300" viewBox="0 0 300 300" fill="none" xmlns="http://www.w3.org/2000/svg">
<path d="M232.5 0H67.5C30.2208 0 0 30.2208 0 67.5V232.5C0 269.779 30.2208 300 67.5 300H232.5C269.779 300 300 269.779 300 232.5V67.5C300 30.2208 269.779 0 232.5 0Z" fill="#1C1919"/>
<path d="M150 76.075C113.7 76.075 84.15 99.7 76.8 132.175L109.35 142.15C112.275 123.475 128.775 109.975 150 109.975C173.475 109.975 191.1 126.4 191.1 148.15V163.825C191.1 164.2 190.65 164.425 190.35 164.2C178.65 156.25 164.85 151.45 150 151.45C107.925 151.45 75 181.825 75 222.25V223.525H108.9V222.25C108.9 200.5 126.6 185.35 150 185.35C173.4 185.35 191.1 200.5 191.1 222.25V223.525H225V148.075C225 107.65 192.075 76 150 76V76.075Z" fill="#00FFAA"/>
</svg>
