<svg id="Layer_1" data-name="Layer 1" xmlns="http://www.w3.org/2000/svg" viewBox="0 0 256 256">
<defs><style>.cls-1{fill:#fff;}</style></defs>
<title>ANS</title>
<polygon class="cls-1" points="92.25 133.2 102.71 153.56 124.2 144.42 113.88 123.99 92.25 133.2"/>
<polygon class="cls-1" points="166.12 126.57 155.65 106.2 135.07 114.96 145.4 135.39 166.12 126.57"/>
<polygon class="cls-1" points="201.69 38.61 178.01 38.61 178.01 50.62 178.01 181.89 178.01 188 171.97 188 145.4 135.39 124.2 144.42 159 213.31 159.41 214.11 201.69 214.11 201.69 38.61"/>
<polygon class="cls-1" points="99.97 45.47 96.5 38.61 77.99 38.61 76.76 38.61 54.3 38.61 54.3 50.61 54.3 214.11 77.99 214.11 77.99 71 77.99 64.88 84.02 64.88 113.88 123.99 135.07 114.96 99.97 45.47"/>
</svg>