<svg width="118" height="116" viewBox="0 0 118 116" fill="none" xmlns="http://www.w3.org/2000/svg">
<path d="M58.9234 0.0765384C30.4195 0.0765384 7.20254 18.5949 1.37917 44.0767L26.9714 51.8819C29.2701 37.1897 42.2195 26.6297 58.9234 26.6297C77.313 26.6297 91.2584 39.4854 91.2584 56.5498V68.8698C91.2584 68.8698 90.8753 69.4055 90.6454 69.1759C81.4506 62.9011 70.5701 59.1515 58.9234 59.1515C25.8987 59.1515 0 83.0264 0 114.707V115.701H26.6649V114.707C26.6649 97.6421 40.5338 85.7047 59 85.7047C77.4662 85.7047 91.3351 97.5656 91.3351 114.707V115.701H118V56.5498C118 24.8697 92.1013 0 59.0766 0L58.9234 0.0765384Z" fill="#00FFAA"/>
</svg>
