<svg width="82" height="34" viewBox="0 0 82 34" fill="none" xmlns="http://www.w3.org/2000/svg">
<rect width="82" height="34" rx="17" fill="#235545"/>
<circle cx="19" cy="17" r="15" fill="white"/>
<path d="M21.4271 7.66016H19.5323H17.4598L14.0156 17.6226H16.1131L18.9026 9.4952H19.9124L22.7016 17.6226H18.8568H16.1131L15.464 19.4577H19.4818H23.3269L25.1301 24.7011H27.2943L21.4271 7.66016Z" fill="#121212"/>
<path d="M11.582 24.7011H13.7213L15.5656 19.3896H13.4357L11.582 24.7011Z" fill="#121212"/>
<path d="M11.9805 17.6187L11.3594 19.3891H13.394L14.0151 17.6187H11.9805Z" fill="#121212"/>
<path d="M40.46 23L45.58 9H48.46L53.58 23H50.86L49.74 19.76H44.28L43.14 23H40.46ZM44.98 17.76H49.04L47 11.94L44.98 17.76ZM54.7834 23V9H57.3434V21H63.5434V23H54.7834ZM70.4895 23.24C69.0895 23.24 67.8629 22.9333 66.8095 22.32C65.7695 21.7067 64.9495 20.86 64.3495 19.78C63.7629 18.6867 63.4695 17.4267 63.4695 16C63.4695 14.5733 63.7629 13.32 64.3495 12.24C64.9495 11.1467 65.7695 10.2933 66.8095 9.68C67.8629 9.06667 69.0895 8.76 70.4895 8.76C71.8762 8.76 73.0962 9.06667 74.1495 9.68C75.2029 10.2933 76.0229 11.1467 76.6095 12.24C77.1962 13.32 77.4895 14.5733 77.4895 16C77.4895 17.4267 77.1962 18.6867 76.6095 19.78C76.0229 20.86 75.2029 21.7067 74.1495 22.32C73.0962 22.9333 71.8762 23.24 70.4895 23.24ZM70.4895 20.94C71.8229 20.94 72.8829 20.5 73.6695 19.62C74.4695 18.74 74.8695 17.5333 74.8695 16C74.8695 14.4667 74.4695 13.26 73.6695 12.38C72.8829 11.5 71.8229 11.06 70.4895 11.06C69.1562 11.06 68.0895 11.5 67.2895 12.38C66.4895 13.26 66.0895 14.4667 66.0895 16C66.0895 17.5333 66.4895 18.74 67.2895 19.62C68.0895 20.5 69.1562 20.94 70.4895 20.94Z" fill="white"/>
</svg>
